                        <svg xmlns="http://www.w3.org/2000/svg" viewBox="0 0 24 24" data-supported-dps="24x24" fill="currentColor" width="24" height="24" focusable="false">
                            <path d="M 19.46 11 l -3.91 -3.91 a 7 7 0 0 1 -1.69 -2.74 l -0.49 -1.47 A 2.76 2.76 0 0 0 10.76 1 A 2.75 2.75 0 0 0 8 3.74 v 1.12 a 9.19 9.19 0 0 0 0.46 2.85 L 8.89 9 H 4.12 A 2.12 2.12 0 0 0 2 11.12 a 2.16 2.16 0 0 0 0.92 1.76 A 2.11 2.11 0 0 0 2 14.62 a 2.14 2.14 0 0 0 1.28 2 a 2 2 0 0 0 -0.28 1 a 2.12 2.12 0 0 0 2 2.12 v 0.14 A 2.12 2.12 0 0 0 7.12 22 h 7.49 a 8.08 8.08 0 0 0 3.58 -0.84 l 0.31 -0.16 H 21 V 11 Z M 19 19 h -1 l -0.73 0.37 a 6.14 6.14 0 0 1 -2.69 0.63 H 7.72 a 1 1 0 0 1 -1 -0.72 l -0.25 -0.87 l -0.85 -0.41 A 1 1 0 0 1 5 17 l 0.17 -1 l -0.76 -0.74 A 1 1 0 0 1 4.27 14 l 0.66 -1.09 l -0.73 -1.1 a 0.49 0.49 0 0 1 0.08 -0.7 a 0.48 0.48 0 0 1 0.34 -0.11 h 7.05 l -1.31 -3.92 A 7 7 0 0 1 10 4.86 V 3.75 a 0.77 0.77 0 0 1 0.75 -0.75 a 0.75 0.75 0 0 1 0.71 0.51 L 12 5 a 9 9 0 0 0 2.13 3.5 l 4.5 4.5 H 19 Z"></path>
                        </svg>